<svg width="50" height="50" viewBox="0 0 50 50" fill="none" xmlns="http://www.w3.org/2000/svg">
<rect width="50" height="50" rx="3" fill="#8930E8"/>
<mask id="path-2-outside-1_0_1" maskUnits="userSpaceOnUse" x="13" y="9" width="23" height="31" fill="black">
<rect fill="white" x="13" y="9" width="23" height="31"/>
<path d="M16.457 36.5938C16.0013 36.3333 15.6042 36.0599 15.2656 35.7734C14.9401 35.487 14.7773 35.181 14.7773 34.8555C14.7773 34.2305 15.0443 33.918 15.5781 33.918C15.9297 33.918 16.3203 34.1133 16.75 34.5039C17.1797 34.8945 17.6615 35.2396 18.1953 35.5391C18.7292 35.8255 19.3086 36.0729 19.9336 36.2812C21.2227 36.7109 22.4141 36.9258 23.5078 36.9258C24.6016 36.9258 25.4414 36.8542 26.0273 36.7109C26.6263 36.5677 27.1276 36.3724 27.5312 36.125C28.3906 35.5911 28.8203 34.9076 28.8203 34.0742C28.8203 33.306 28.4492 32.5312 27.707 31.75C27.082 31.0859 26.1966 30.2917 25.0508 29.3672L21.7109 26.75C18.3646 24.1719 16.3919 21.8151 15.793 19.6797C15.5846 18.9375 15.4805 18.1107 15.4805 17.1992C15.4805 16.2878 15.6823 15.3893 16.0859 14.5039C16.5026 13.6185 17.1146 12.8438 17.9219 12.1797C19.6536 10.7344 22.0104 10.0117 24.9922 10.0117C26.5156 10.0117 27.8828 10.2396 29.0938 10.6953C30.3047 11.138 31.1315 11.5352 31.5742 11.8867C32.0169 12.2383 32.2383 12.5573 32.2383 12.8438C32.2383 13.4427 31.9909 13.7422 31.4961 13.7422C31.2096 13.7422 30.9036 13.599 30.5781 13.3125C30.2526 13.026 29.888 12.7786 29.4844 12.5703C29.0938 12.349 28.6445 12.1536 28.1367 11.9844C27.043 11.6198 25.9688 11.4375 24.9141 11.4375C22.974 11.4375 22.0039 12.0755 22.0039 13.3516C22.0039 13.8854 22.1797 14.3802 22.5312 14.8359C23.1562 15.6302 24.3737 16.7695 26.1836 18.2539C28.0065 19.7253 29.4648 21.0143 30.5586 22.1211C31.6654 23.2279 32.5052 24.224 33.0781 25.1094C33.9896 26.5026 34.4453 27.9544 34.4453 29.4648C34.4453 30.9622 34.1784 32.2383 33.6445 33.293C33.1237 34.3346 32.388 35.2331 31.4375 35.9883C29.4323 37.5768 26.9453 38.3711 23.9766 38.3711C21.0078 38.3711 18.5013 37.7786 16.457 36.5938Z"/>
</mask>
<path d="M16.457 36.5938C16.0013 36.3333 15.6042 36.0599 15.2656 35.7734C14.9401 35.487 14.7773 35.181 14.7773 34.8555C14.7773 34.2305 15.0443 33.918 15.5781 33.918C15.9297 33.918 16.3203 34.1133 16.75 34.5039C17.1797 34.8945 17.6615 35.2396 18.1953 35.5391C18.7292 35.8255 19.3086 36.0729 19.9336 36.2812C21.2227 36.7109 22.4141 36.9258 23.5078 36.9258C24.6016 36.9258 25.4414 36.8542 26.0273 36.7109C26.6263 36.5677 27.1276 36.3724 27.5312 36.125C28.3906 35.5911 28.8203 34.9076 28.8203 34.0742C28.8203 33.306 28.4492 32.5312 27.707 31.75C27.082 31.0859 26.1966 30.2917 25.0508 29.3672L21.7109 26.75C18.3646 24.1719 16.3919 21.8151 15.793 19.6797C15.5846 18.9375 15.4805 18.1107 15.4805 17.1992C15.4805 16.2878 15.6823 15.3893 16.0859 14.5039C16.5026 13.6185 17.1146 12.8438 17.9219 12.1797C19.6536 10.7344 22.0104 10.0117 24.9922 10.0117C26.5156 10.0117 27.8828 10.2396 29.0938 10.6953C30.3047 11.138 31.1315 11.5352 31.5742 11.8867C32.0169 12.2383 32.2383 12.5573 32.2383 12.8438C32.2383 13.4427 31.9909 13.7422 31.4961 13.7422C31.2096 13.7422 30.9036 13.599 30.5781 13.3125C30.2526 13.026 29.888 12.7786 29.4844 12.5703C29.0938 12.349 28.6445 12.1536 28.1367 11.9844C27.043 11.6198 25.9688 11.4375 24.9141 11.4375C22.974 11.4375 22.0039 12.0755 22.0039 13.3516C22.0039 13.8854 22.1797 14.3802 22.5312 14.8359C23.1562 15.6302 24.3737 16.7695 26.1836 18.2539C28.0065 19.7253 29.4648 21.0143 30.5586 22.1211C31.6654 23.2279 32.5052 24.224 33.0781 25.1094C33.9896 26.5026 34.4453 27.9544 34.4453 29.4648C34.4453 30.9622 34.1784 32.2383 33.6445 33.293C33.1237 34.3346 32.388 35.2331 31.4375 35.9883C29.4323 37.5768 26.9453 38.3711 23.9766 38.3711C21.0078 38.3711 18.5013 37.7786 16.457 36.5938Z" fill="white"/>
<path d="M16.457 36.5938L16.9585 35.7286L16.9532 35.7255L16.457 36.5938ZM15.2656 35.7734L14.605 36.5242L14.6123 36.5306L14.6197 36.5368L15.2656 35.7734ZM18.1953 35.5391L17.7061 36.4112L17.7142 36.4158L17.7225 36.4202L18.1953 35.5391ZM19.9336 36.2812L19.6174 37.2299L19.9336 36.2812ZM26.0273 36.7109L25.7948 35.7383L25.7899 35.7395L26.0273 36.7109ZM27.5312 36.125L28.0538 36.9776L28.0589 36.9744L27.5312 36.125ZM27.707 31.75L26.9788 32.4354L26.982 32.4387L27.707 31.75ZM25.0508 29.3672L25.6787 28.5889L25.6732 28.5845L25.6676 28.5801L25.0508 29.3672ZM21.7109 26.75L22.3278 25.9629L22.3212 25.9578L21.7109 26.75ZM15.793 19.6797L16.7558 19.4096L16.7558 19.4094L15.793 19.6797ZM16.0859 14.5039L15.1811 14.0781L15.176 14.0891L16.0859 14.5039ZM17.9219 12.1797L18.5572 12.952L18.5626 12.9474L17.9219 12.1797ZM29.0938 10.6953L28.7415 11.6313L28.7504 11.6345L29.0938 10.6953ZM29.4844 12.5703L28.9914 13.4403L29.0084 13.45L29.0257 13.4589L29.4844 12.5703ZM28.1367 11.9844L28.4529 11.0357L28.1367 11.9844ZM22.5312 14.8359L21.7394 15.4468L21.7454 15.4543L22.5312 14.8359ZM26.1836 18.2539L25.5494 19.0271L25.5555 19.0321L26.1836 18.2539ZM30.5586 22.1211L29.8473 22.824L29.8515 22.8282L30.5586 22.1211ZM33.0781 25.1094L32.2385 25.6526L32.2413 25.6568L33.0781 25.1094ZM33.6445 33.293L32.7523 32.8413L32.7501 32.8458L33.6445 33.293ZM31.4375 35.9883L32.0585 36.7721L32.0596 36.7712L31.4375 35.9883ZM16.457 36.5938L16.9532 35.7255C16.5411 35.4901 16.1959 35.2507 15.9116 35.0101L15.2656 35.7734L14.6197 36.5368C15.0124 36.8691 15.4615 37.1766 15.9609 37.462L16.457 36.5938ZM15.2656 35.7734L15.9263 35.0227C15.8321 34.9398 15.7949 34.8832 15.7823 34.8595C15.7727 34.8414 15.7773 34.8439 15.7773 34.8555H14.7773H13.7773C13.7773 35.5557 14.1393 36.1144 14.605 36.5242L15.2656 35.7734ZM14.7773 34.8555H15.7773C15.7773 34.7671 15.7871 34.7263 15.7892 34.7192C15.7904 34.7148 15.7803 34.7522 15.7379 34.8018C15.6927 34.8548 15.6375 34.8901 15.5913 34.9081C15.5513 34.9238 15.54 34.918 15.5781 34.918V33.918V32.918C15.1122 32.918 14.594 33.0617 14.2172 33.5029C13.8661 33.9138 13.7773 34.424 13.7773 34.8555H14.7773ZM15.5781 33.918V34.918C15.5656 34.918 15.5982 34.9142 15.6876 34.9589C15.7792 35.0047 15.9094 35.0912 16.0773 35.2438L16.75 34.5039L17.4227 33.764C16.9212 33.3081 16.2971 32.918 15.5781 32.918V33.918ZM16.75 34.5039L16.0773 35.2438C16.5659 35.688 17.1098 36.0767 17.7061 36.4112L18.1953 35.5391L18.6846 34.6669C18.2131 34.4024 17.7935 34.1011 17.4227 33.764L16.75 34.5039ZM18.1953 35.5391L17.7225 36.4202C18.3107 36.7358 18.943 37.0051 19.6174 37.2299L19.9336 36.2812L20.2498 35.3326C19.6742 35.1407 19.1477 34.9152 18.6681 34.6579L18.1953 35.5391ZM19.9336 36.2812L19.6174 37.2299C20.9847 37.6857 22.2842 37.9258 23.5078 37.9258V36.9258V35.9258C22.544 35.9258 21.4606 35.7362 20.2498 35.3326L19.9336 36.2812ZM23.5078 36.9258V37.9258C24.6281 37.9258 25.5623 37.8541 26.2648 37.6823L26.0273 36.7109L25.7899 35.7395C25.3205 35.8543 24.575 35.9258 23.5078 35.9258V36.9258ZM26.0273 36.7109L26.2599 37.6835C26.9322 37.5228 27.5381 37.2937 28.0538 36.9776L27.5312 36.125L27.0087 35.2724C26.7171 35.4511 26.3204 35.6127 25.7948 35.7384L26.0273 36.7109ZM27.5312 36.125L28.0589 36.9744C29.1391 36.3034 29.8203 35.3312 29.8203 34.0742H28.8203H27.8203C27.8203 34.4839 27.6422 34.8789 27.0036 35.2756L27.5312 36.125ZM28.8203 34.0742H29.8203C29.8203 32.9618 29.2792 31.953 28.432 31.0613L27.707 31.75L26.982 32.4387C27.6192 33.1095 27.8203 33.6502 27.8203 34.0742H28.8203ZM27.707 31.75L28.4352 31.0646C27.766 30.3535 26.8413 29.5269 25.6787 28.5889L25.0508 29.3672L24.4229 30.1455C25.5519 31.0564 26.3981 31.8183 26.9788 32.4354L27.707 31.75ZM25.0508 29.3672L25.6676 28.5801L22.3277 25.9629L21.7109 26.75L21.0941 27.5371L24.434 30.1543L25.0508 29.3672ZM21.7109 26.75L22.3212 25.9578C19.0134 23.4094 17.2636 21.2201 16.7558 19.4096L15.793 19.6797L14.8301 19.9498C15.5202 22.4101 17.7158 24.9344 21.1006 27.5422L21.7109 26.75ZM15.793 19.6797L16.7558 19.4094C16.5761 18.7695 16.4805 18.0354 16.4805 17.1992H15.4805H14.4805C14.4805 18.1859 14.5931 19.1055 14.8302 19.9499L15.793 19.6797ZM15.4805 17.1992H16.4805C16.4805 16.4404 16.6475 15.6829 16.9958 14.9187L16.0859 14.5039L15.176 14.0891C14.7171 15.0958 14.4805 16.1351 14.4805 17.1992H15.4805ZM16.0859 14.5039L16.9908 14.9297C17.3401 14.1873 17.8563 13.5285 18.5571 12.952L17.9219 12.1797L17.2866 11.4074C16.3729 12.159 15.6651 13.0496 15.1811 14.0781L16.0859 14.5039ZM17.9219 12.1797L18.5626 12.9474C20.0637 11.6946 22.1685 11.0117 24.9922 11.0117V10.0117V9.01172C21.8523 9.01172 19.2436 9.77412 17.2811 11.4119L17.9219 12.1797ZM24.9922 10.0117V11.0117C26.4162 11.0117 27.6612 11.2247 28.7415 11.6312L29.0938 10.6953L29.446 9.7594C28.1044 9.25451 26.615 9.01172 24.9922 9.01172V10.0117ZM29.0938 10.6953L28.7504 11.6345C29.9562 12.0754 30.6472 12.4275 30.9523 12.6698L31.5742 11.8867L32.1961 11.1036C31.6159 10.6428 30.6531 10.2007 29.4371 9.75611L29.0938 10.6953ZM31.5742 11.8867L30.9523 12.6698C31.1286 12.8098 31.2149 12.9081 31.2507 12.9597C31.2856 13.0101 31.2383 12.9652 31.2383 12.8438H32.2383H33.2383C33.2383 12.0587 32.6672 11.4777 32.1961 11.1036L31.5742 11.8867ZM32.2383 12.8438H31.2383C31.2383 12.9279 31.2292 12.966 31.2278 12.9713C31.227 12.9743 31.2377 12.9341 31.2818 12.8807C31.3292 12.8233 31.3899 12.7816 31.4466 12.7587C31.4972 12.7383 31.5209 12.7422 31.4961 12.7422V13.7422V14.7422C31.9533 14.7422 32.4601 14.5946 32.8237 14.1545C33.1571 13.7509 33.2383 13.2558 33.2383 12.8438H32.2383ZM31.4961 13.7422V12.7422C31.5234 12.7422 31.5196 12.7496 31.4757 12.7291C31.4288 12.7071 31.3494 12.6592 31.2388 12.5618L30.5781 13.3125L29.9175 14.0632C30.3349 14.4306 30.868 14.7422 31.4961 14.7422V13.7422ZM30.5781 13.3125L31.2388 12.5618C30.8489 12.2188 30.4159 11.9258 29.943 11.6817L29.4844 12.5703L29.0257 13.4589C29.3601 13.6315 29.6563 13.8333 29.9175 14.0632L30.5781 13.3125ZM29.4844 12.5703L29.9774 11.7003C29.521 11.4417 29.0108 11.2216 28.4529 11.0357L28.1367 11.9844L27.8205 12.9331C28.2783 13.0857 28.6665 13.2562 28.9914 13.4403L29.4844 12.5703ZM28.1367 11.9844L28.4529 11.0357C27.2667 10.6403 26.0858 10.4375 24.9141 10.4375V11.4375V12.4375C25.8517 12.4375 26.8192 12.5993 27.8205 12.9331L28.1367 11.9844ZM24.9141 11.4375V10.4375C23.8662 10.4375 22.9064 10.604 22.1819 11.0805C21.3843 11.6052 21.0039 12.4164 21.0039 13.3516H22.0039H23.0039C23.0039 13.0107 23.1085 12.8649 23.281 12.7515C23.5265 12.59 24.0218 12.4375 24.9141 12.4375V11.4375ZM22.0039 13.3516H21.0039C21.0039 14.1241 21.2641 14.8306 21.7395 15.4467L22.5312 14.8359L23.323 14.2251C23.0952 13.9298 23.0039 13.6467 23.0039 13.3516H22.0039ZM22.5312 14.8359L21.7454 15.4543C22.4439 16.3421 23.7372 17.5408 25.5494 19.0271L26.1836 18.2539L26.8177 17.4807C25.0102 15.9982 23.8686 14.9183 23.3171 14.2175L22.5312 14.8359ZM26.1836 18.2539L25.5555 19.0321C27.3623 20.4904 28.7894 21.7535 29.8473 22.824L30.5586 22.1211L31.2699 21.4182C30.1403 20.2751 28.6507 18.9601 26.8117 17.4758L26.1836 18.2539ZM30.5586 22.1211L29.8515 22.8282C30.9299 23.9066 31.7175 24.8473 32.2386 25.6526L33.0781 25.1094L33.9177 24.5661C33.2929 23.6006 32.4008 22.5491 31.2657 21.414L30.5586 22.1211ZM33.0781 25.1094L32.2413 25.6568C33.0576 26.9046 33.4453 28.1686 33.4453 29.4648H34.4453H35.4453C35.4453 27.7403 34.9216 26.1006 33.915 24.5619L33.0781 25.1094ZM34.4453 29.4648H33.4453C33.4453 30.8461 33.199 31.959 32.7523 32.8414L33.6445 33.293L34.5367 33.7446C35.1578 32.5176 35.4453 31.0784 35.4453 29.4648H34.4453ZM33.6445 33.293L32.7501 32.8458C32.2973 33.7514 31.6567 34.5369 30.8154 35.2053L31.4375 35.9883L32.0596 36.7712C33.1193 35.9293 33.9501 34.9178 34.539 33.7402L33.6445 33.293ZM31.4375 35.9883L30.8165 35.2044C29.0156 36.6312 26.7577 37.3711 23.9766 37.3711V38.3711V39.3711C27.1329 39.3711 29.849 38.5225 32.0585 36.7721L31.4375 35.9883ZM23.9766 38.3711V37.3711C21.1394 37.3711 18.816 36.8052 16.9585 35.7286L16.457 36.5938L15.9556 37.4589C18.1866 38.7521 20.8763 39.3711 23.9766 39.3711V38.3711Z" fill="#08904E" mask="url(#path-2-outside-1_0_1)"/>
</svg>
