<svg width="52" height="52" viewBox="0 0 52 52" fill="none" xmlns="http://www.w3.org/2000/svg">
<rect x="0.5" y="0.5" width="51" height="51" rx="2.5" fill="#8930E8" stroke="white"/>
<path d="M35.2 8C36.608 9.664 37.312 10.656 37.312 10.976C37.312 11.296 37.152 11.648 36.832 12.032C35.328 13.728 33.568 15.44 31.552 17.168C31.104 17.552 30.768 17.744 30.544 17.744C30.224 17.744 30.064 17.504 30.064 17.024C30.064 16.512 30.272 15.84 30.688 15.008C31.136 14.176 31.36 13.696 31.36 13.568C31.36 13.44 31.296 13.376 31.168 13.376C31.072 13.376 30.928 13.408 30.736 13.472C27.056 14.784 24.496 16.848 23.056 19.664C22.736 20.304 22.576 20.832 22.576 21.248C22.576 22.08 23.216 22.864 24.496 23.6C24.688 23.728 25.552 24.192 27.088 24.992C30.192 26.656 32.144 28 32.944 29.024C34.224 30.624 34.864 32.192 34.864 33.728C34.864 34.336 34.688 34.976 34.336 35.648C34.016 36.288 33.6 36.768 33.088 37.088C27.68 40.448 22.864 42.128 18.64 42.128C16.4 42.128 15.28 41.104 15.28 39.056C15.28 38.384 15.504 37.744 15.952 37.136C15.184 36.592 14.8 36.016 14.8 35.408C14.8 34.768 15.232 34.128 16.096 33.488C18.144 31.952 21.44 31.184 25.984 31.184C26.464 31.184 27.04 31.36 27.712 31.712C28.384 32.032 28.928 32.384 29.344 32.768C30.144 32.32 30.544 31.92 30.544 31.568C30.544 31.216 30.336 30.864 29.92 30.512C29.312 30.064 28.176 29.472 26.512 28.736C24.88 28 23.84 27.504 23.392 27.248C22.048 26.48 21.008 25.376 20.272 23.936C19.568 22.496 19.216 20.976 19.216 19.376C19.216 17.744 19.616 16.272 20.416 14.96C21.248 13.616 22.4 12.448 23.872 11.456C26.112 9.952 28.912 8.576 32.272 7.328C32.72 7.2 33.072 7.136 33.328 7.136C34.064 7.136 34.688 7.424 35.2 8ZM26.08 34.592C25.76 34.528 25.392 34.496 24.976 34.496C24.56 34.496 23.744 34.688 22.528 35.072C21.344 35.456 20.752 35.888 20.752 36.368C20.752 36.56 20.864 36.656 21.088 36.656C21.952 36.656 23.616 35.968 26.08 34.592Z" fill="white"/>
</svg>
